<svg width="25" height="27" viewBox="0 0 25 27" fill="none" xmlns="http://www.w3.org/2000/svg">
<g clip-path="url(#clip0_164_1036)">
<path d="M8.85587 26.3163C8.41537 26.2403 7.96176 26.208 7.53656 26.0816C4.90973 25.302 3.21678 23.5793 2.50709 20.9821C1.44954 17.1126 3.36143 13.2461 7.4107 11.6779C8.00109 11.4492 8.62557 11.3073 9.22819 11.1071C10.6214 10.6446 11.8183 9.89908 12.6727 8.69107C13.1315 8.04134 13.4225 7.32776 13.4593 6.52271C13.5134 5.32506 12.9873 4.42898 12.0071 3.76976C11.3555 3.33013 10.6196 3.10579 9.85005 2.96687C9.38333 2.8836 9.04465 2.53112 9.01974 2.10401C8.98915 1.61391 9.24873 1.19801 9.70759 1.09274C9.93046 1.04269 10.1839 1.06427 10.4125 1.10913C11.6772 1.35548 12.8509 1.81927 13.7914 2.71233C15.4083 4.24778 15.7859 6.10767 15.0989 8.17724C14.5343 9.8775 13.3557 11.1015 11.8393 12.0308C10.908 12.6015 9.88676 12.9497 8.83489 13.2353C7.49329 13.5994 6.31164 14.2418 5.42627 15.3325C4.45219 16.5349 4.07156 17.9211 4.20572 19.4432C4.32895 20.8401 4.86472 22.0606 5.91003 23.0275C6.85134 23.8994 7.96394 24.424 9.27495 24.4046C10.5956 24.3847 11.7117 23.8701 12.5695 22.8726C13.6131 21.6585 13.5362 20.1977 12.3947 19.035C12.299 18.9375 12.1928 18.8495 12.0993 18.7498C11.7497 18.3745 11.7436 17.7843 12.1024 17.4267C12.483 17.047 13.0201 16.9995 13.4134 17.3404C15.5468 19.1929 15.9091 21.9567 14.0291 24.1492C12.9637 25.3913 11.5788 26.0535 9.96017 26.2705C9.83912 26.2865 9.71764 26.299 9.59615 26.3137L8.85587 26.3163Z" fill="#333333"/>
<path d="M20.7766 4.2793C21.6148 4.30907 22.4053 4.48509 23.1408 4.87381C23.3634 4.99186 23.5306 5.19096 23.607 5.42879C23.6833 5.66663 23.6627 5.92447 23.5495 6.14755C23.4364 6.37063 23.2396 6.54138 23.001 6.62351C22.7624 6.70565 22.5007 6.69271 22.2716 6.58744C21.7817 6.35186 21.2432 6.2315 20.6984 6.23583C19.0268 6.26171 17.59 7.58232 17.423 9.21959C17.3356 10.0924 17.5214 10.9112 17.86 11.7038C18.3534 12.8643 18.7904 14.0395 19.0504 15.2773C19.5652 17.7308 19.1107 20.0023 17.7796 22.1172C17.5314 22.5115 17.2622 22.8938 17.0026 23.282C16.7299 23.6884 16.1133 23.8485 15.661 23.5435C15.4481 23.4017 15.2998 23.1833 15.2479 22.935C15.1959 22.6867 15.2445 22.4281 15.3831 22.2147C15.6523 21.791 15.9486 21.3837 16.2103 20.9558C16.7697 20.0403 17.1591 19.0596 17.271 17.9897C17.3813 16.9983 17.2865 15.995 16.9921 15.0409C16.7059 14.1288 16.3598 13.2345 16.0141 12.3423C15.5771 11.2132 15.3809 10.0557 15.5483 8.85374C15.894 6.36526 17.7499 4.79831 19.6871 4.43763C20.0472 4.37076 20.413 4.3315 20.7766 4.2793Z" fill="#333333"/>
<path d="M9.44338 15.8115C9.44222 15.5117 9.56154 15.2236 9.77519 15.0105C9.98884 14.7974 10.2794 14.6767 10.5831 14.6747C10.8133 14.671 11.0394 14.7351 11.2325 14.8589C11.4256 14.9826 11.577 15.1603 11.6674 15.3693C11.7577 15.5784 11.783 15.8093 11.7398 16.0325C11.6967 16.2558 11.5872 16.4613 11.4252 16.6228C11.2633 16.7844 11.0563 16.8946 10.8306 16.9395C10.6049 16.9844 10.3708 16.9618 10.1581 16.8748C9.94545 16.7877 9.76389 16.6401 9.63658 16.4507C9.50928 16.2613 9.44202 16.0388 9.44338 15.8115Z" fill="#333333"/>
</g>
<defs>
<clipPath id="clip0_164_1036">
<rect width="24.3651" height="25.6821" fill="white" transform="translate(0 0.766602)"/>
</clipPath>
</defs>
</svg>
