<svg width="26" height="22" viewBox="0 0 26 22" fill="none" xmlns="http://www.w3.org/2000/svg">
<path fill-rule="evenodd" clip-rule="evenodd" d="M16.9434 12.7215L19.4671 5.5724C21.363 7.68975 22.604 10.5615 23.3581 13.2766C22.6752 13.5958 22.2201 14.4095 22.0747 14.7877C22.5477 14.3699 23.2609 14.2135 23.5937 14.183C23.9711 15.7395 24.1891 17.2079 24.2812 18.4075H12.8592V18.4081H1.14648C1.23865 17.2079 1.45692 15.7385 1.83465 14.181C2.15802 14.2069 2.89106 14.361 3.37377 14.7875C3.22709 14.4059 2.76524 13.5811 2.0722 13.2679C2.82665 10.5551 4.06735 7.68686 5.96174 5.5718L8.48577 12.7219C8.67791 13.2662 9.31215 13.5086 9.81828 13.231C10.1636 13.0417 10.3535 12.6564 10.2932 12.2673L8.9012 3.27196C9.98377 2.72756 11.2017 2.3985 12.5686 2.3576V2.35266C12.6241 2.35266 12.6794 2.35313 12.7344 2.35406C12.7759 2.35354 12.8175 2.35327 12.8592 2.35327V2.35699C14.2266 2.3979 15.445 2.72723 16.5279 3.27204L15.136 12.2668C15.0757 12.656 15.2656 13.0413 15.6109 13.2306C16.117 13.5081 16.7513 13.2658 16.9434 12.7215ZM12.6419 21.3342L12.8714 21.3343V21.3339C13.9457 21.3315 16.3572 21.3075 17.1891 21.0682C18.249 20.7633 19.1518 20.2763 20.0314 19.8018C21.3491 19.091 22.6147 18.4083 24.2783 18.4083H12.5656V18.4084H1.15869C2.82232 18.4084 4.08791 19.0911 5.40566 19.802C6.28522 20.2764 7.18803 20.7634 8.24796 21.0683C9.07978 21.3076 11.4913 21.3316 12.5656 21.334V21.3342L12.6419 21.3342Z" fill="#2F80ED"/>
<path d="M0.797985 15.0291C1.11684 14.3531 1.46227 14.1841 1.9937 14.1841V18.409L0.399414 18.409C0.399414 17.564 0.479128 15.7051 0.797985 15.0291Z" fill="#2F80ED"/>
<path d="M24.7069 15.0292C24.388 14.3532 24.0426 14.1842 23.5112 14.1842V18.4092L25.1055 18.4092C25.1055 17.5642 25.0258 15.7052 24.7069 15.0292Z" fill="#2F80ED"/>
<path fill-rule="evenodd" clip-rule="evenodd" d="M16.4997 3.63899C16.6554 2.88729 16.6902 1.62379 15.1453 1.08659C14.4371 0.840321 13.8105 0.689875 12.8833 0.667067V0.664246C12.8436 0.664246 12.8044 0.664458 12.7657 0.664882C12.7212 0.664316 12.6761 0.664032 12.6301 0.664032V0.66728C11.7029 0.690089 11.0763 0.840534 10.3681 1.08681C8.82323 1.62401 8.85802 2.88751 9.01372 3.6392L12.7577 3.2135L16.4997 3.63899Z" fill="#2F80ED"/>
</svg>
